<?xml version="1.0" encoding="UTF-8" standalone="no"?>
<svg
   xmlns:dc="http://purl.org/dc/elements/1.1/"
   xmlns:cc="http://creativecommons.org/ns#"
   xmlns:rdf="http://www.w3.org/1999/02/22-rdf-syntax-ns#"
   xmlns:svg="http://www.w3.org/2000/svg"
   xmlns="http://www.w3.org/2000/svg"
   xmlns:sodipodi="http://sodipodi.sourceforge.net/DTD/sodipodi-0.dtd"
   xmlns:inkscape="http://www.inkscape.org/namespaces/inkscape"
   width="473.996"
   height="427.774"
   id="svg2816"
   version="1.1"
   inkscape:version="0.47pre3 "
   sodipodi:docname="COA Pontianak.svg">
  <title
     id="title3004">Seal of the CIty of Pontianak</title>
  <metadata
     id="metadata3000">
    <rdf:RDF>
      <cc:Work
         rdf:about="">
        <dc:format>image/svg+xml</dc:format>
        <dc:type
           rdf:resource="http://purl.org/dc/dcmitype/StillImage" />
        <dc:title>Seal of the CIty of Pontianak</dc:title>
      </cc:Work>
    </rdf:RDF>
  </metadata>
  <sodipodi:namedview
     pagecolor="#ffffff"
     bordercolor="#666666"
     borderopacity="1"
     objecttolerance="10"
     gridtolerance="10"
     guidetolerance="10"
     inkscape:pageopacity="0"
     inkscape:pageshadow="2"
     inkscape:window-width="640"
     inkscape:window-height="481"
     id="namedview2998"
     showgrid="false"
     inkscape:zoom="0.5516932"
     inkscape:cx="300.01602"
     inkscape:cy="207.88151"
     inkscape:window-x="534"
     inkscape:window-y="48"
     inkscape:window-maximized="0"
     inkscape:current-layer="g2828" />
  <defs
     id="defs2818">
    <inkscape:perspective
       sodipodi:type="inkscape:persp3d"
       inkscape:vp_x="0 : 213.88699 : 1"
       inkscape:vp_y="0 : 1000 : 0"
       inkscape:vp_z="473.996 : 213.88699 : 1"
       inkscape:persp3d-origin="236.998 : 142.59133 : 1"
       id="perspective3002" />
    <marker
       id="ArrowEnd"
       viewBox="0 0 10 10"
       refX="0"
       refY="5"
       markerUnits="strokeWidth"
       markerWidth="4"
       markerHeight="3"
       orient="auto">
      <path
         d="M 0 0 L 10 5 L 0 10 z"
         id="path2821" />
    </marker>
    <marker
       id="ArrowStart"
       viewBox="0 0 10 10"
       refX="10"
       refY="5"
       markerUnits="strokeWidth"
       markerWidth="4"
       markerHeight="3"
       orient="auto">
      <path
         d="M 10 0 L 0 5 L 10 10 z"
         id="path2824" />
    </marker>
  </defs>
  <g
     id="g2826">
    <g
       id="g2828">
      <path
         style="stroke:#000000; stroke-width:6.0008445000000004; fill:#ffff66"
         d="M 237.846 31.4495C 255.443 46.4955 281.046 52.3045 311.618 52.3849C 382.978 63.813 463.707 185.969 437.485 273.702C 432.499 293.087 426.538 309.487 403.999 313.834C 394.739 317.107 385.996 322.729 378.412 333.518L 250.806 396.324L 93.4086 332.521C 89.8974 319.162 78.1463 316.689 63.2216 309.377C 54.5533 304.373 46.0283 295.497 40.4546 285.666C -0.714676 197.935 109.482 54.7998 165.07 51.388C 194.477 55.0307 219.422 49.7567 237.846 31.4495z"
         id="path2830" />
      <path
         style="stroke:#000000; stroke-width:2.0003760000000002; fill:#ffffff"
         d="M 237.973 115.943C 301.388 115.943 353.109 167.663 353.109 231.079C 353.109 294.494 301.388 346.215 237.973 346.215C 174.559 346.215 122.836 294.494 122.836 231.079C 122.836 167.663 174.559 115.943 237.973 115.943z"
         id="path2832" />
      <g
         id="g2834">
        <path
           style="stroke:#000000; stroke-width:2.0003760000000002; fill:#00ccff"
           d="M 343.468 184.608C 366.173 253.907 342.611 302.734 285.011 336.507L 343.468 184.608z"
           id="path2836" />
        <path
           style="stroke:#000000; stroke-width:2.0003760000000002; fill:#00ccff"
           d="M 259.767 343.17L 303.292 136.582L 323.097 154.851L 272.611 340.06L 259.767 343.17z"
           id="path2838" />
        <path
           style="stroke:#000000; stroke-width:2.0003760000000002; fill:#00ccff"
           d="M 251.354 116.655C 259.975 117.828 269.397 120.066 280.583 124.649L 251.354 344.945L 242.94 345.834C 242.94 345.834 251.797 116.655 251.354 116.655z"
           id="path2840" />
        <path
           style="stroke:#000000; stroke-width:2.0003760000000002; fill:#00ccff"
           d="M 192.011 126.427C 201.384 121.173 211.568 118.997 222.125 117.292L 229.653 345.834L 221.683 344.945L 192.011 126.427z"
           id="path2842" />
        <path
           style="stroke:#000000; stroke-width:2.0003760000000002; fill:#00ccff"
           d="M 164.996 141.971L 209.724 341.837L 200.426 339.615L 143.739 165.067L 164.996 141.971z"
           id="path2844" />
        <path
           style="stroke:#000000; stroke-width:2.0003760000000002; fill:#00ccff"
           d="M 128.682 194.824C 111.374 257.556 134.03 301.305 184.039 332.065L 128.682 194.824z"
           id="path2846" />
      </g>
      <path
         style="stroke:#000000; stroke-width:2.0003760000000002; fill:#000000"
         d="M 204.269 325.042L 201.541 325.042L 201.541 300.139L 196.982 300.139L 196.982 297.803L 204.269 297.803L 204.269 325.042zM 220.559 325.042L 217.687 325.042L 228.027 300.478L 216.589 300.478L 216.589 297.803L 231.007 297.803L 231.007 300.255L 220.559 325.042zM 241.329 325.042L 238.457 325.042L 248.799 300.478L 237.359 300.478L 237.359 297.803L 251.777 297.803L 251.777 300.255L 241.329 325.042zM 266.58 325.042L 263.854 325.042L 263.854 300.139L 259.295 300.139L 259.295 297.803L 266.58 297.803L 266.58 325.042z"
         id="path2848" />
      <g
         id="g2850">
        <path
           style="stroke:#000000; stroke-width:2.0003760000000002; fill:#99ff00"
           d="M 108.303 321.445C 101.802 309.855 96.5411 298.291 92.4774 286.847C 78.0849 246.321 78.6681 207.252 91.9453 173.206C 105.22 139.167 131.181 110.169 167.541 89.774C 178.245 83.7691 189.86 78.5067 202.316 74.0834L 203.173 76.5099C 190.865 80.8806 179.382 86.0831 168.801 92.0193C 132.97 112.117 107.401 140.66 94.3426 174.141C 81.2876 207.617 80.7263 246.069 94.9039 285.99C 98.9165 297.291 104.116 308.718 110.548 320.185L 108.303 321.445z"
           id="path2854" />
        <path
           style="stroke:#000000; stroke-width:2.0003760000000002; fill:#99ff00"
           d="M 50.1651 283.173C 56.9535 298.333 69.7177 308.213 94.3587 309.444L 106.353 315.284L 104.403 313.17L 94.6116 308.218C 85.6904 291.732 69.6724 285.154 50.1651 283.173z"
           id="path2856" />
        <path
           style="stroke:#000000; stroke-width:2.0003760000000002; fill:#99ff00"
           d="M 50.399 283.086L 105.05 314.446"
           id="path2858" />
        <path
           style="stroke:#000000; stroke-width:2.0003760000000002; fill:#99ff00"
           d="M 41.5759 246.802C 46.3817 262.702 59.0492 282.598 86.7079 281.657L 93.2249 286.645L 91.5592 283.452L 87.1137 280.262C 77.1971 263.2 66.9979 249.342 41.5759 246.802z"
           id="path2860" />
        <path
           style="stroke:#000000; stroke-width:2.0003760000000002; fill:#99ff00"
           d="M 41.819 246.745L 92.0392 284.8"
           id="path2862" />
        <path
           style="stroke:#000000; stroke-width:2.0003760000000002; fill:#99ff00"
           d="M 86.6552 262.498L 77.1683 255.085C 51.4894 249.943 44.8399 232.507 42.8065 212.087C 58.7939 217.277 71.2423 229.994 78.2237 253.814L 86.6552 262.498z"
           id="path2864" />
        <path
           style="stroke:#000000; stroke-width:2.0003760000000002; fill:#99ff00"
           d="M 42.8065 212.298L 79.6986 256.568"
           id="path2866" />
        <path
           style="stroke:#000000; stroke-width:2.0003760000000002; fill:#99ff00"
           d="M 53.3474 182.645C 66.3673 190.548 76.9417 203.538 76.9578 225.007L 81.596 229.244L 82.229 232.845L 76.7473 226.492C 57.205 216.818 51.5157 201.354 53.3474 182.645z"
           id="path2868" />
        <path
           style="stroke:#000000; stroke-width:2.0003760000000002; fill:#99ff00"
           d="M 53.1354 182.645L 76.5368 226.066"
           id="path2870" />
        <path
           style="stroke:#000000; stroke-width:2.0003760000000002; fill:#99ff00"
           d="M 66.1681 151.517C 77.3734 161.833 85.1781 176.653 80.9593 197.704L 84.67 204.68L 84.5809 206.427L 80.4602 198.695C 63.2098 185.356 60.6823 169.497 66.1681 151.517z"
           id="path2872" />
        <path
           style="stroke:#000000; stroke-width:2.0003760000000002; fill:#99ff00"
           d="M 65.9603 151.475L 80.3375 198.66"
           id="path2874" />
        <path
           style="stroke:#000000; stroke-width:2.0003760000000002; fill:#99ff00"
           d="M 81.9467 130.132C 91.9171 138.693 98.0008 150.295 91.4352 165.491L 94.3356 170.955L 94.05 172.239L 90.8276 166.181C 75.1913 154.882 74.4683 142.955 81.9467 130.132z"
           id="path2876" />
        <path
           style="stroke:#000000; stroke-width:2.0003760000000002; fill:#99ff00"
           d="M 81.9715 130.539L 90.9362 166.6"
           id="path2878" />
        <path
           style="stroke:#000000; stroke-width:2.0003760000000002; fill:#99ff00"
           d="M 103.952 103.266L 102.754 142.753M 104.137 103.359C 106.258 115.333 113.16 129.564 103.612 142.289L 105.152 148.275L 104.575 149.459L 102.857 142.82C 90.3035 128.165 93.8643 114.076 104.137 103.359z"
           id="path2880" />
        <path
           style="stroke:#000000; stroke-width:2.0003760000000002; fill:#99ff00"
           d="M 126.473 84.4356L 118.661 123.16M 126.64 84.5581C 126.72 96.7179 131.134 111.907 119.584 122.847L 120.097 129.007L 119.329 130.077L 118.751 123.243C 108.837 106.689 114.713 93.3977 126.64 84.5581z"
           id="path2882" />
        <path
           style="stroke:#000000; stroke-width:2.0003760000000002; fill:#99ff00"
           d="M 152.26 66.1776L 138.875 103.345M 152.407 66.3231C 150.71 78.3641 152.858 94.0348 139.834 103.17L 139.441 109.339L 138.526 110.286L 138.952 103.441C 131.562 85.6158 139.317 73.3257 152.407 66.3231z"
           id="path2884" />
        <path
           style="stroke:#000000; stroke-width:2.0003760000000002; fill:#99ff00"
           d="M 179.946 60.6551L 161.993 90.2799M 180.047 60.8058C 176.499 70.8609 175.627 84.703 162.848 90.2957L 161.44 95.53L 160.489 96.185L 162.043 90.3752C 158.783 73.7723 167.581 64.5539 180.047 60.8058z"
           id="path2886" />
        <path
           style="stroke:#000000; stroke-width:2.0003760000000002; fill:#99ff00"
           d="M 206.956 59.1585L 188.841 76.9012M 207 59.2837C 202.657 65.7686 199.522 75.4252 189.444 77.0677L 187.494 80.5234L 186.701 80.8149L 188.858 76.9778C 189.565 64.6126 197.48 59.6753 207 59.2837z"
           id="path2888" />
        <path
           style="stroke:#000000; stroke-width:2.0003760000000002; fill:#99ff00"
           d="M 238.574 60.0408L 200.962 78.0365M 238.405 59.9015C 225.941 62.9604 209.257 62.3655 201.044 77.0106L 194.608 78.0768L 193.71 79.1387L 200.854 77.9658C 220.355 83.8362 232.439 74.3898 238.405 59.9015z"
           id="path2890" />
        <path
           style="stroke:#000000; stroke-width:2.0003760000000002; fill:#99ff00"
           d="M 108.949 316.418L 110.763 306.627C 103.15 285.983 106.664 271.106 117.788 260.177C 118.526 276.801 127.329 290.008 111.669 306.627L 108.949 316.418z"
           id="path2892" />
        <path
           style="stroke:#000000; stroke-width:2.0003760000000002; fill:#99ff00"
           d="M 95.6161 288.87L 99.0495 279.523C 95.0134 257.893 100.977 243.818 113.779 234.913C 111.714 251.426 118.172 265.924 99.9429 279.675L 95.6161 288.87z"
           id="path2894" />
        <path
           style="stroke:#000000; stroke-width:2.0003760000000002; fill:#99ff00"
           d="M 87.4971 262.467L 92.096 254.74C 92.1033 234.869 99.733 223.366 112.575 217.586C 108.001 231.9 111.328 245.842 92.8638 255.023L 87.4971 262.467z"
           id="path2896" />
        <path
           style="stroke:#000000; stroke-width:2.0003760000000002; fill:#99ff00"
           d="M 84.3613 233.11L 90.2411 226.572C 94.0246 207.515 103.529 197.931 116.945 194.828C 109.838 207.688 110.379 221.693 90.9237 226.99L 84.3613 233.11z"
           id="path2898" />
        <path
           style="stroke:#000000; stroke-width:2.0003760000000002; fill:#99ff00"
           d="M 85.5224 206.718L 92.4467 201.299C 99.4774 183.186 110.5 175.396 124.251 174.666C 115.021 186.099 113.125 199.986 93.0465 201.829L 85.5224 206.718z"
           id="path2900" />
        <path
           style="stroke:#000000; stroke-width:2.0003760000000002; fill:#99ff00"
           d="M 90.2974 184.19L 97.7662 179.55C 106.711 162.302 118.51 155.747 132.26 156.505C 121.849 166.876 118.466 180.476 98.3053 180.142L 90.2974 184.19z"
           id="path2902" />
        <path
           style="stroke:#000000; stroke-width:2.0003760000000002; fill:#99ff00"
           d="M 98.2224 163.235L 105.463 158.247C 111.577 136.585 135.557 139.601 148.843 134.262C 140.939 158.697 118.563 150.573 106.03 158.812L 98.2224 163.235z"
           id="path2904" />
        <path
           style="stroke:#000000; stroke-width:2.0003760000000002; fill:#99ff00"
           d="M 114.824 136.249L 124.158 132.897C 145.671 137.074 159.731 131.237 168.693 118.552C 152.233 120.489 137.841 113.951 124.013 132.006L 114.824 136.249z"
           id="path2906" />
        <path
           style="stroke:#000000; stroke-width:2.0003760000000002; fill:#99ff00"
           d="M 136.356 113.518L 146.127 111.823C 166.6 119.64 181.455 116.311 192.467 105.358C 175.919 104.433 162.867 95.5152 146.138 110.921L 136.356 113.518z"
           id="path2908" />
        <path
           style="stroke:#000000; stroke-width:2.0003760000000002; fill:#99ff00"
           d="M 158.561 96.1396L 167.38 96.5644C 183.652 107.333 197.207 107.324 208.902 99.9441C 194.703 95.9271 185.093 85.644 167.565 95.7821L 158.561 96.1396z"
           id="path2910" />
        <path
           style="stroke:#000000; stroke-width:2.0003760000000002; fill:#99ff00"
           d="M 183.026 83.1964L 191.613 85.2549C 205.596 98.8627 218.916 101.376 231.78 96.3019C 218.576 89.7128 211.048 77.8211 191.939 84.5206L 183.026 83.1964z"
           id="path2912" />
        <path
           style="stroke:#000000; stroke-width:2.0003760000000002; fill:#99ff00"
           d="M 111.707 305.896L 117.154 261.517"
           id="path2914" />
        <path
           style="stroke:#000000; stroke-width:2.0003760000000002; fill:#99ff00"
           d="M 100.007 278.462L 112.514 237.109"
           id="path2916" />
        <path
           style="stroke:#000000; stroke-width:2.0003760000000002; fill:#99ff00"
           d="M 93.5518 253.65L 111.102 219.155"
           id="path2918" />
        <path
           style="stroke:#000000; stroke-width:2.0003760000000002; fill:#99ff00"
           d="M 90.9294 226.619L 114.531 196.36"
           id="path2920" />
        <path
           style="stroke:#000000; stroke-width:2.0003760000000002; fill:#99ff00"
           d="M 93.5518 201L 121.39 175.784"
           id="path2922" />
        <path
           style="stroke:#000000; stroke-width:2.0003760000000002; fill:#99ff00"
           d="M 98.5949 179.415L 130.467 156.822"
           id="path2924" />
        <path
           style="stroke:#000000; stroke-width:2.0003760000000002; fill:#99ff00"
           d="M 106.866 156.621L 147.614 135.843"
           id="path2926" />
        <path
           style="stroke:#000000; stroke-width:2.0003760000000002; fill:#99ff00"
           d="M 125.222 132.212L 166.979 119.907"
           id="path2928" />
        <path
           style="stroke:#000000; stroke-width:2.0003760000000002; fill:#99ff00"
           d="M 146.807 111.031L 189.572 106.391"
           id="path2930" />
        <path
           style="stroke:#000000; stroke-width:2.0003760000000002; fill:#99ff00"
           d="M 168.997 95.9017L 206.719 100.34"
           id="path2932" />
        <path
           style="stroke:#000000; stroke-width:2.0003760000000002; fill:#99ff00"
           d="M 193.405 85.2104L 228.707 96.1035"
           id="path2934" />
      </g>
      <path
         style="stroke:#000000; stroke-width:2.0003760000000002; fill:#99ff00"
         d="M 376.274 308.326L 388.528 305.062C 395.188 275.673 429.453 255.521 431.82 232.59C 430.273 269.145 420.813 297.997 389.477 305.543L 375.192 312.175L 368.56 325.034L 364.479 322.888C 369.984 315.964 370.639 309.045 369.086 302.127C 345.749 270.861 361.384 253.993 362.438 225.958C 374.542 245.692 377.018 276.177 368.746 300.609L 372.131 304.522L 388.075 266.435C 390.397 241.795 353.425 214.716 357.142 185.179C 357.008 180.883 355.374 176.587 352.235 172.288C 367.19 190.414 383.694 202.352 381.913 242.46C 386.603 234.41 391.064 216.044 389.756 204.388L 370.474 173.527C 346.812 165.904 338.598 149.373 322.139 129.961C 342.795 136.41 358.901 149.378 371.074 173.532C 374.315 150.005 356.145 143.561 347.229 130.389C 335.413 121.066 307.164 133.343 285.666 107.268C 283.7 103.718 277.192 103.766 268.618 103.813C 293.731 93.7339 327.816 106.121 335.067 124.025L 346.995 126.285C 344.546 113.149 330.135 103.557 311.462 95.222C 266.349 92.9446 242.722 81.6875 245.028 59.5958C 261.592 73.4928 291.664 61.9507 308.227 89.8033C 314.77 95.2191 326.352 99.6234 339.344 103.744C 340.297 99.6541 303.035 84.6739 288.002 56.2688C 319.646 70.5386 337.992 65.0555 339.543 98.2303C 345.489 116.565 353.276 133.38 367.633 142.694C 369.482 138.246 370.928 135.589 367.97 132.339C 356.153 119.544 356.965 95.6533 344.472 78.1296C 360.127 87.4644 369.702 99.4919 371.495 132.326C 370.813 146.024 376.403 159.967 378.716 173.663C 379.807 183.485 389.778 198.816 395.677 203.232C 393.359 184.685 387.841 157.128 392.128 139.177C 392.671 132.202 390.74 125.64 387.684 119.262C 405.309 143.193 415.328 169.293 396.682 203.811C 396.457 221.551 380.25 246.495 396.009 257.03C 393.227 230.33 401.918 210.249 414.756 192.555C 418.156 184.846 418.254 177.138 416.853 169.427C 423.132 197.976 433.792 226.319 399.96 256.715C 387.278 275.196 379.946 292.251 376.274 308.326z"
         id="path2936" />
      <path
         style="stroke:#000000; stroke-width:2.0003760000000002; fill:#000000"
         d="M 355.805 177.226L 383.268 244.505"
         id="path2938" />
      <path
         style="stroke:#000000; stroke-width:2.0003760000000002; fill:none"
         d="M 325.714 132.319L 380.675 183.307"
         id="path2942" />
      <path
         style="stroke:#000000; stroke-width:2.0003760000000002; fill:none"
         d="M 277.596 102.741C 304.846 105.15 325.857 115.359 345.359 127.463"
         id="path2944" />
      <path
         style="stroke:#000000; stroke-width:2.0003760000000002; fill:none"
         d="M 348.67 81.5516C 358.113 97.2393 366.356 114.126 371.288 134.332"
         id="path2946" />
      <path
         style="stroke:#000000; stroke-width:2.0003760000000002; fill:none"
         d="M 291.502 59.0374C 312.655 70.0241 329.869 84.0264 340.061 103.404"
         id="path2948" />
      <path
         style="stroke:#000000; stroke-width:2.0003760000000002; fill:#00ff00"
         d="M 245.811 62.1276C 251.592 73.4285 279.885 84.7411 315.119 95.4574"
         id="path2950" />
      <path
         style="stroke:#000000; stroke-width:2.0003760000000002; fill:#ffffff"
         d="M 143.416 166.852L 208.736 188.388C 226.516 193.574 242.981 195.385 255.826 187.87L 313.264 144.403C 320.005 150.255 326.214 156.637 331.256 164.187L 290.496 197.702C 273.183 214.742 275.766 233.723 287.391 253.589L 326.201 304.818L 305.502 324.999L 251.168 245.827C 244.604 233.507 234.864 225.071 221.155 218.401C 192.183 204.592 159.717 201.683 128.012 199.255C 131.673 187.549 135.759 176.157 143.416 166.852z"
         id="path2952" />
      <path
         style="stroke:#000000; stroke-width:0.216027; fill:#000000"
         d="M 123.872 227.715L 353.114 227.715L 353.627 235.995L 123.353 235.995L 123.872 227.715z"
         id="path2954" />
      <path
         style="stroke:#000000; stroke-width:0.216027; fill:#ffffff"
         d="M 136.081 229.969L 139.468 229.969L 139.468 233.418L 136.081 233.418L 136.081 229.969z"
         id="path2956" />
      <path
         style="stroke:#000000; stroke-width:0.216027; fill:#ffffff"
         d="M 125.558 229.969L 128.947 229.969L 128.947 233.418L 125.558 233.418L 125.558 229.969z"
         id="path2958" />
      <path
         style="stroke:#000000; stroke-width:0.216027; fill:#ffffff"
         d="M 151.952 230.19L 156.767 230.19L 156.767 233.641L 151.952 233.641L 151.952 230.19z"
         id="path2960" />
      <path
         style="stroke:#000000; stroke-width:0.216027; fill:#ffffff"
         d="M 169.965 230.19L 179.059 230.19L 179.059 233.641L 169.965 233.641L 169.965 230.19z"
         id="path2962" />
      <path
         style="stroke:#000000; stroke-width:0.216027; fill:#ffffff"
         d="M 194.218 230.19L 203.313 230.19L 203.313 233.641L 194.218 233.641L 194.218 230.19z"
         id="path2964" />
      <path
         style="stroke:#000000; stroke-width:0.216027; fill:#ffffff"
         d="M 218.115 230.19L 224.001 230.19L 224.001 233.641L 218.115 233.641L 218.115 230.19z"
         id="path2966" />
      <path
         style="stroke:#000000; stroke-width:0.216027; fill:#ffffff"
         d="M 238.089 230.19L 243.974 230.19L 243.974 233.641L 238.089 233.641L 238.089 230.19z"
         id="path2968" />
      <path
         style="stroke:#000000; stroke-width:0.216027; fill:#ffffff"
         d="M 284.277 230.19L 290.163 230.19L 290.163 233.641L 284.277 233.641L 284.277 230.19z"
         id="path2970" />
      <path
         style="stroke:#000000; stroke-width:0.216027; fill:#ffffff"
         d="M 305.5 230.19L 312.989 230.19L 312.989 233.641L 305.5 233.641L 305.5 230.19z"
         id="path2972" />
      <path
         style="stroke:#000000; stroke-width:0.216027; fill:#ffffff"
         d="M 328.683 230.19L 332.963 230.19L 332.963 233.641L 328.683 233.641L 328.683 230.19z"
         id="path2974" />
      <path
         style="stroke:#000000; stroke-width:0.216027; fill:#ffffff"
         d="M 345.447 230.19L 350.44 230.19L 350.44 233.641L 345.447 233.641L 345.447 230.19z"
         id="path2976" />
      <path
         style="stroke:#000000; stroke-width:0.216027; fill:#ffffff"
         d="M 251.464 230.19L 258.776 230.19L 258.776 233.641L 251.464 233.641L 251.464 230.19z"
         id="path2978" />
      <path
         style="stroke:#000000; stroke-width:0.216027; fill:#ffffff"
         d="M 266.444 230.19L 273.756 230.19L 273.756 233.641L 266.444 233.641L 266.444 230.19z"
         id="path2980" />
      <path
         style="stroke:#000000;stroke-width:0.21602700000000000;fill:#d40000"
         d="M 83.1323 337.322L 133.967 303.064C 174.794 378.204 286.407 380.552 341.725 305.274L 390.718 342.847C 308.977 459.549 143.135 446.057 83.1323 337.322z"
         id="path2982" />
      <path
         style="stroke:#000000; stroke-width:0.216027; fill:#ffffff"
         d="M 115.166 351.599L 133.753 333.65L 136.715 336.718L 128.462 344.688L 142.729 342.945L 146.732 347.09L 133.945 348.34L 128.438 365.342L 124.593 361.362L 129.264 348.739L 123.746 349.242L 118.128 354.667L 115.166 351.599zM 136.528 356.193C 138.295 353.67 140.116 351.854 142.007 350.747C 143.895 349.638 145.723 349.104 147.484 349.147C 149.246 349.191 150.982 349.813 152.698 351.013C 155.181 352.753 156.538 355.114 156.778 358.107C 157.011 361.098 155.904 364.348 153.451 367.851C 150.973 371.389 148.205 373.581 145.155 374.412C 142.467 375.159 139.881 374.656 137.388 372.909C 134.875 371.15 133.504 368.891 133.269 366.133C 133.007 362.982 134.094 359.667 136.528 356.193zM 140.235 358.577C 138.531 361.011 137.717 363.158 137.786 365.022C 137.86 366.886 138.575 368.299 139.946 369.258C 141.319 370.221 142.883 370.41 144.634 369.838C 146.387 369.266 148.134 367.726 149.887 365.223C 151.604 362.77 152.436 360.649 152.377 358.854C 152.321 357.066 151.579 355.673 150.155 354.676C 148.731 353.679 147.154 353.456 145.434 354.015C 143.706 354.574 141.974 356.093 140.235 358.577zM 152.955 382.503L 163.033 363.55L 157.477 360.597L 159.529 356.735L 174.393 364.637L 172.34 368.499L 166.798 365.553L 156.72 384.506L 152.955 382.503zM 180.437 394.809L 176.095 393.143L 176.468 386.998L 168.572 383.967L 164.84 388.822L 160.594 387.193L 177.553 366.026L 181.783 367.65L 180.437 394.809zM 176.747 382.445L 177.465 372.45L 171.351 380.375L 176.747 382.445zM 205.533 401.171L 208.682 375.525L 215.506 376.362C 218.05 376.674 219.696 377.004 220.448 377.346C 221.648 377.893 222.57 378.867 223.223 380.257C 223.877 381.65 224.079 383.367 223.827 385.409C 223.6 387.266 223.056 388.776 222.204 389.943C 221.351 391.112 220.365 391.881 219.252 392.261C 218.145 392.639 216.304 392.673 213.737 392.359L 210.955 392.017L 209.767 401.69L 205.533 401.171zM 212.383 380.385L 211.489 387.658L 213.837 387.946C 215.413 388.14 216.494 388.163 217.089 388.013C 217.676 387.861 218.193 387.518 218.621 386.983C 219.058 386.447 219.323 385.765 219.427 384.924C 219.53 384.077 219.434 383.33 219.134 382.706C 218.83 382.073 218.417 381.631 217.895 381.36C 217.368 381.095 216.222 380.857 214.449 380.64L 212.383 380.385zM 224.668 391.06C 224.72 387.982 225.216 385.456 226.165 383.482C 227.109 381.507 228.326 380.042 229.81 379.093C 231.295 378.144 233.084 377.689 235.176 377.725C 238.208 377.778 240.653 378.975 242.525 381.323C 244.392 383.673 245.291 386.986 245.215 391.264C 245.14 395.582 244.071 398.945 242.007 401.339C 240.197 403.463 237.771 404.492 234.728 404.437C 231.661 404.385 229.261 403.278 227.523 401.124C 225.546 398.657 224.594 395.301 224.668 391.06zM 229.073 390.962C 229.022 393.934 229.548 396.169 230.647 397.675C 231.751 399.18 233.135 399.951 234.805 399.981C 236.483 400.01 237.887 399.293 239.019 397.839C 240.152 396.384 240.739 394.133 240.792 391.077C 240.845 388.083 240.348 385.86 239.295 384.403C 238.25 382.953 236.854 382.214 235.117 382.183C 233.379 382.152 231.947 382.849 230.832 384.274C 229.712 385.703 229.126 387.932 229.073 390.962zM 248.363 403.927L 245.663 378.23L 249.803 377.795L 260.228 394.048L 258.424 376.889L 262.385 376.472L 265.085 402.169L 260.806 402.62L 250.562 386.753L 252.324 403.511L 248.363 403.927zM 274.309 400.552L 269.844 379.557L 263.691 380.864L 262.781 376.587L 279.247 373.087L 280.155 377.364L 274.018 378.67L 278.48 399.665L 274.309 400.552zM 286.856 397.497L 280.169 372.538L 284.288 371.434L 290.976 396.393L 286.856 397.497zM 312.97 388.601L 308.628 390.267L 304.795 385.45L 296.898 388.482L 297.373 394.588L 293.127 396.217L 291.567 369.139L 295.796 367.516L 312.97 388.601zM 301.954 381.881L 295.8 373.972L 296.558 383.953L 301.954 381.881zM 314.99 387.242L 302.859 364.428L 306.534 362.473L 322.29 373.638L 314.188 358.404L 317.705 356.535L 329.835 379.347L 326.037 381.367L 310.595 370.495L 318.505 385.372L 314.99 387.242zM 348.038 364.794L 344.423 367.72L 339.289 364.324L 332.716 369.647L 335.055 375.307L 331.52 378.17L 321.669 352.899L 325.19 350.048L 348.038 364.794zM 335.486 361.807L 327.189 356.187L 330.993 365.445L 335.486 361.807zM 349.663 362.818L 330.462 345.528L 333.316 342.358L 341.842 350.036L 339.108 335.925L 342.964 331.642L 345.102 344.31L 362.448 348.619L 358.745 352.732L 345.827 348.952L 346.714 354.422L 352.517 359.648L 349.663 362.818z"
         id="path2984" />
      <path
         style="stroke:#000000; stroke-width:2.0003760000000002; fill:none"
         d="M 390.42 125.133C 402.349 153.522 400.15 180.183 396.998 201.333"
         id="path2986" />
      <path
         style="stroke:#000000; stroke-width:2.0003760000000002; fill:none"
         d="M 418.707 180.633C 416.201 206.406 408.083 237.667 397.37 257.799"
         id="path2988" />
      <path
         style="stroke:#000000; stroke-width:2.0003760000000002; fill:none"
         d="M 364.282 230.045L 368.578 298.917"
         id="path2990" />
      <path
         style="stroke:#000000; stroke-width:2.0003760000000002; fill:none"
         d="M 430.165 241.145C 421.946 269.701 409.754 293.675 385.128 306.338"
         id="path2992" />
    </g>
    <g
       id="g2994" />
  </g>
  <g
     id="g2996" />
</svg>
